<?xml version="1.0" encoding="UTF-8"?>
<svg xmlns="http://www.w3.org/2000/svg" xmlns:xlink="http://www.w3.org/1999/xlink" width="810pt" height="809.999993pt" viewBox="0 0 810 809.999993" version="1.2">
<defs>
<clipPath id="clip1">
  <path d="M 36.050781 36.050781 L 651 36.050781 L 651 774 L 36.050781 774 Z M 36.050781 36.050781 "/>
</clipPath>
</defs>
<g id="surface1">
<g clip-path="url(#clip1)" clip-rule="nonzero">
<path style=" stroke:none;fill-rule:nonzero;fill:rgb(92.549133%,92.549133%,92.549133%);fill-opacity:1;" d="M 36.050781 61.230469 L 36.050781 748.980469 C 36.050781 762.550781 47.042969 773.542969 60.613281 773.542969 L 625.554688 773.542969 C 639.125 773.542969 650.117188 762.550781 650.117188 748.980469 L 650.117188 61.230469 C 650.117188 47.65625 639.125 36.667969 625.554688 36.667969 L 60.613281 36.667969 C 47.042969 36.667969 36.050781 47.65625 36.050781 61.230469 Z M 36.050781 61.230469 "/>
</g>
<path style=" stroke:none;fill-rule:nonzero;fill:rgb(22.349548%,76.469421%,98.81897%);fill-opacity:1;" d="M 281.679688 613.886719 L 281.679688 577.042969 C 281.679688 563.472656 270.6875 552.480469 257.113281 552.480469 L 109.738281 552.480469 C 96.167969 552.480469 85.175781 563.472656 85.175781 577.042969 L 85.175781 699.855469 C 85.175781 713.425781 96.167969 724.417969 109.738281 724.417969 L 257.113281 724.417969 C 270.6875 724.417969 281.679688 713.425781 281.679688 699.855469 Z M 281.679688 613.886719 "/>
<path style=" stroke:none;fill-rule:nonzero;fill:rgb(54.899597%,58.428955%,64.309692%);fill-opacity:1;" d="M 330.804688 601.605469 L 674.679688 601.605469 L 674.679688 699.855469 L 330.804688 699.855469 L 244.046875 667.324219 C 237.132812 664.730469 232.550781 658.125 232.550781 650.730469 C 232.550781 643.335938 237.132812 636.730469 244.046875 634.136719 Z M 330.804688 601.605469 "/>
<path style=" stroke:none;fill-rule:nonzero;fill:rgb(22.349548%,76.469421%,98.81897%);fill-opacity:1;" d="M 699.242188 552.480469 L 551.867188 552.480469 C 538.296875 552.480469 527.304688 541.488281 527.304688 527.917969 L 527.304688 405.105469 C 527.304688 391.535156 538.296875 380.542969 551.867188 380.542969 L 699.242188 380.542969 C 712.8125 380.542969 723.804688 391.535156 723.804688 405.105469 L 723.804688 527.917969 C 723.804688 541.488281 712.8125 552.480469 699.242188 552.480469 Z M 699.242188 552.480469 "/>
<path style=" stroke:none;fill-rule:nonzero;fill:rgb(82.749939%,62.748718%,42.349243%);fill-opacity:1;" d="M 146.582031 270.011719 L 146.582031 205.535156 C 146.582031 139.398438 200.191406 85.792969 266.328125 85.792969 C 292.238281 85.792969 317.441406 94.191406 338.171875 109.738281 L 355.367188 122.636719 C 375.714844 122.636719 392.210938 139.128906 392.210938 159.480469 L 392.210938 270.011719 Z M 146.582031 270.011719 "/>
<path style=" stroke:none;fill-rule:nonzero;fill:rgb(100%,78.039551%,16.079712%);fill-opacity:1;" d="M 613.273438 515.636719 C 610.019531 515.636719 606.886719 514.359375 604.589844 512.039062 L 567.746094 475.195312 C 562.945312 470.390625 562.945312 462.628906 567.746094 457.828125 C 572.546875 453.027344 580.308594 453.027344 585.113281 457.828125 L 612.253906 484.96875 L 751.054688 311.460938 C 755.316406 306.191406 763.03125 305.292969 768.324219 309.542969 C 773.617188 313.792969 774.476562 321.519531 770.238281 326.8125 L 622.863281 511.03125 C 620.679688 513.757812 617.4375 515.414062 613.949219 515.613281 C 613.726562 515.625 613.507812 515.636719 613.273438 515.636719 Z M 613.273438 515.636719 "/>
<path style=" stroke:none;fill-rule:nonzero;fill:rgb(98.429871%,34.899902%,40.779114%);fill-opacity:1;" d="M 437.28125 446.1875 C 432.234375 428.5 417.71875 415.113281 399.675781 411.515625 L 306.242188 392.824219 L 232.550781 392.824219 L 139.117188 411.515625 C 121.074219 415.125 106.570312 428.5 101.511719 446.1875 L 85.175781 503.355469 L 453.617188 503.355469 Z M 437.28125 446.1875 "/>
<path style=" stroke:none;fill-rule:nonzero;fill:rgb(80.389404%,17.248535%,35.289001%);fill-opacity:1;" d="M 399.675781 411.515625 L 306.242188 392.824219 L 327.820312 407.21875 C 361.1875 429.457031 384.347656 464.042969 392.210938 503.355469 L 453.617188 503.355469 L 437.28125 446.1875 C 432.234375 428.5 417.71875 415.113281 399.675781 411.515625 Z M 399.675781 411.515625 "/>
<path style=" stroke:none;fill-rule:nonzero;fill:rgb(97.648621%,87.838745%,65.098572%);fill-opacity:1;" d="M 232.550781 355.980469 L 232.550781 400.191406 C 232.550781 416.464844 249.046875 429.667969 269.398438 429.667969 C 289.746094 429.667969 306.242188 416.464844 306.242188 400.191406 L 306.242188 355.980469 Z M 232.550781 355.980469 "/>
<path style=" stroke:none;fill-rule:nonzero;fill:rgb(97.648621%,87.838745%,65.098572%);fill-opacity:1;" d="M 343.085938 233.167969 L 355.367188 233.167969 C 375.714844 233.167969 392.210938 249.660156 392.210938 270.011719 C 392.210938 290.359375 375.714844 306.855469 355.367188 306.855469 L 343.085938 306.855469 Z M 343.085938 233.167969 "/>
<path style=" stroke:none;fill-rule:nonzero;fill:rgb(97.648621%,87.838745%,65.098572%);fill-opacity:1;" d="M 195.707031 233.167969 L 183.425781 233.167969 C 163.078125 233.167969 146.582031 249.660156 146.582031 270.011719 C 146.582031 290.359375 163.078125 306.855469 183.425781 306.855469 L 195.707031 306.855469 Z M 195.707031 233.167969 "/>
<path style=" stroke:none;fill-rule:nonzero;fill:rgb(97.648621%,87.838745%,65.098572%);fill-opacity:1;" d="M 183.425781 233.167969 L 183.425781 294.574219 C 183.425781 342.050781 221.917969 380.542969 269.398438 380.542969 C 316.875 380.542969 355.367188 342.050781 355.367188 294.574219 L 355.367188 233.167969 L 257.113281 233.167969 C 236.765625 233.167969 220.269531 216.671875 220.269531 196.324219 C 220.269531 216.671875 203.777344 233.167969 183.425781 233.167969 Z M 183.425781 233.167969 "/>
<path style=" stroke:none;fill-rule:nonzero;fill:rgb(91.758728%,74.119568%,54.899597%);fill-opacity:1;" d="M 318.523438 233.167969 L 318.523438 294.574219 C 318.523438 335.726562 289.585938 370.078125 250.972656 378.515625 C 256.917969 379.816406 263.070312 380.542969 269.398438 380.542969 C 316.875 380.542969 355.367188 342.050781 355.367188 294.574219 L 355.367188 233.167969 Z M 318.523438 233.167969 "/>
<path style=" stroke:none;fill-rule:nonzero;fill:rgb(99.609375%,65.879822%,18.429565%);fill-opacity:1;" d="M 625.554688 601.605469 L 674.679688 601.605469 L 674.679688 699.855469 L 625.554688 699.855469 Z M 625.554688 601.605469 "/>
<path style=" stroke:none;fill-rule:nonzero;fill:rgb(98.81897%,84.309387%,43.919373%);fill-opacity:1;" d="M 330.804688 601.605469 L 625.554688 601.605469 L 625.554688 650.730469 L 330.804688 650.730469 Z M 330.804688 601.605469 "/>
<path style=" stroke:none;fill-rule:nonzero;fill:rgb(100%,78.039551%,16.079712%);fill-opacity:1;" d="M 330.804688 650.730469 L 625.554688 650.730469 L 625.554688 699.855469 L 330.804688 699.855469 Z M 330.804688 650.730469 "/>
<path style=" stroke:none;fill-rule:nonzero;fill:rgb(92.549133%,92.549133%,92.549133%);fill-opacity:1;" d="M 723.804688 699.855469 L 674.679688 699.855469 L 674.679688 601.605469 L 723.804688 601.605469 C 750.933594 601.605469 772.929688 623.601562 772.929688 650.730469 C 772.929688 677.859375 750.933594 699.855469 723.804688 699.855469 Z M 723.804688 699.855469 "/>
<path style=" stroke:none;fill-rule:nonzero;fill:rgb(68.629456%,72.158813%,78.819275%);fill-opacity:1;" d="M 600.992188 98.074219 L 441.335938 98.074219 C 434.554688 98.074219 429.054688 92.570312 429.054688 85.792969 C 429.054688 79.011719 434.554688 73.511719 441.335938 73.511719 L 600.992188 73.511719 C 607.769531 73.511719 613.273438 79.011719 613.273438 85.792969 C 613.273438 92.570312 607.769531 98.074219 600.992188 98.074219 Z M 600.992188 98.074219 "/>
<path style=" stroke:none;fill-rule:nonzero;fill:rgb(68.629456%,72.158813%,78.819275%);fill-opacity:1;" d="M 600.992188 147.199219 L 441.335938 147.199219 C 434.554688 147.199219 429.054688 141.695312 429.054688 134.917969 C 429.054688 128.136719 434.554688 122.636719 441.335938 122.636719 L 600.992188 122.636719 C 607.769531 122.636719 613.273438 128.136719 613.273438 134.917969 C 613.273438 141.695312 607.769531 147.199219 600.992188 147.199219 Z M 600.992188 147.199219 "/>
<path style=" stroke:none;fill-rule:nonzero;fill:rgb(68.629456%,72.158813%,78.819275%);fill-opacity:1;" d="M 600.992188 196.324219 L 441.335938 196.324219 C 434.554688 196.324219 429.054688 190.820312 429.054688 184.042969 C 429.054688 177.261719 434.554688 171.761719 441.335938 171.761719 L 600.992188 171.761719 C 607.769531 171.761719 613.273438 177.261719 613.273438 184.042969 C 613.273438 190.820312 607.769531 196.324219 600.992188 196.324219 Z M 600.992188 196.324219 "/>
<path style=" stroke:none;fill-rule:nonzero;fill:rgb(68.629456%,72.158813%,78.819275%);fill-opacity:1;" d="M 600.992188 245.449219 L 441.335938 245.449219 C 434.554688 245.449219 429.054688 239.945312 429.054688 233.167969 C 429.054688 226.386719 434.554688 220.886719 441.335938 220.886719 L 600.992188 220.886719 C 607.769531 220.886719 613.273438 226.386719 613.273438 233.167969 C 613.273438 239.945312 607.769531 245.449219 600.992188 245.449219 Z M 600.992188 245.449219 "/>
<path style=" stroke:none;fill-rule:nonzero;fill:rgb(68.629456%,72.158813%,78.819275%);fill-opacity:1;" d="M 600.992188 294.574219 L 441.335938 294.574219 C 434.554688 294.574219 429.054688 289.070312 429.054688 282.292969 C 429.054688 275.511719 434.554688 270.011719 441.335938 270.011719 L 600.992188 270.011719 C 607.769531 270.011719 613.273438 275.511719 613.273438 282.292969 C 613.273438 289.070312 607.769531 294.574219 600.992188 294.574219 Z M 600.992188 294.574219 "/>
<path style=" stroke:none;fill-rule:nonzero;fill:rgb(68.629456%,72.158813%,78.819275%);fill-opacity:1;" d="M 600.992188 343.699219 L 441.335938 343.699219 C 434.554688 343.699219 429.054688 338.195312 429.054688 331.417969 C 429.054688 324.636719 434.554688 319.136719 441.335938 319.136719 L 600.992188 319.136719 C 607.769531 319.136719 613.273438 324.636719 613.273438 331.417969 C 613.273438 338.195312 607.769531 343.699219 600.992188 343.699219 Z M 600.992188 343.699219 "/>
<path style=" stroke:none;fill-rule:nonzero;fill:rgb(71.369934%,75.689697%,80.778503%);fill-opacity:1;" d="M 330.804688 699.855469 L 650.117188 736.699219 L 650.117188 699.855469 Z M 330.804688 699.855469 "/>
</g>
</svg>
